<mxfile host="65bd71144e">
    <diagram id="4JuOQKYvCj76YSFSErYb" name="Page-1">
        <mxGraphModel dx="308" dy="491" grid="1" gridSize="10" guides="1" tooltips="1" connect="1" arrows="1" fold="1" page="1" pageScale="1" pageWidth="850" pageHeight="1100" math="0" shadow="0">
            <root>
                <mxCell id="0"/>
                <mxCell id="1" parent="0"/>
                <mxCell id="8" value="App" style="swimlane;fontStyle=0;childLayout=stackLayout;horizontal=1;startSize=30;horizontalStack=0;resizeParent=1;resizeParentMax=0;resizeLast=0;collapsible=1;marginBottom=0;fillColor=#000066;" parent="1" vertex="1">
                    <mxGeometry x="425" y="40" width="120" height="70" as="geometry"/>
                </mxCell>
                <mxCell id="9" value="Fetch" style="text;strokeColor=none;fillColor=none;align=left;verticalAlign=middle;spacingLeft=4;spacingRight=4;overflow=hidden;points=[[0,0.5],[1,0.5]];portConstraint=eastwest;rotatable=0;" parent="8" vertex="1">
                    <mxGeometry y="30" width="120" height="20" as="geometry"/>
                </mxCell>
                <mxCell id="13" value="Nav Switcher" style="text;strokeColor=none;fillColor=none;align=left;verticalAlign=middle;spacingLeft=4;spacingRight=4;overflow=hidden;points=[[0,0.5],[1,0.5]];portConstraint=eastwest;rotatable=0;" parent="8" vertex="1">
                    <mxGeometry y="50" width="120" height="20" as="geometry"/>
                </mxCell>
                <mxCell id="14" value="Header" style="swimlane;fontStyle=0;childLayout=stackLayout;horizontal=1;startSize=30;horizontalStack=0;resizeParent=1;resizeParentMax=0;resizeLast=0;collapsible=1;marginBottom=0;fillColor=#000099;fontColor=#ffffff;strokeColor=#FFFFFF;" parent="1" vertex="1">
                    <mxGeometry x="470" y="120" width="170" height="70" as="geometry"/>
                </mxCell>
                <mxCell id="15" value="Page Navigation   " style="text;strokeColor=none;fillColor=none;align=left;verticalAlign=middle;spacingLeft=4;spacingRight=4;overflow=hidden;points=[[0,0.5],[1,0.5]];portConstraint=eastwest;rotatable=0;" parent="14" vertex="1">
                    <mxGeometry y="30" width="170" height="20" as="geometry"/>
                </mxCell>
                <mxCell id="16" value="Card Groups Accordian" style="text;strokeColor=none;fillColor=none;align=left;verticalAlign=middle;spacingLeft=4;spacingRight=4;overflow=hidden;points=[[0,0.5],[1,0.5]];portConstraint=eastwest;rotatable=0;" parent="14" vertex="1">
                    <mxGeometry y="50" width="170" height="20" as="geometry"/>
                </mxCell>
                <mxCell id="18" value="Groups&#10;(My Cards)" style="swimlane;fontStyle=0;childLayout=stackLayout;horizontal=1;startSize=30;horizontalStack=0;resizeParent=1;resizeParentMax=0;resizeLast=0;collapsible=1;marginBottom=0;fillColor=#000099;strokeColor=default;" parent="1" vertex="1">
                    <mxGeometry x="470" y="200" width="170" height="100" as="geometry"/>
                </mxCell>
                <mxCell id="20" value="displays a grid of all card fronts in group" style="text;strokeColor=#FFFFFF;fillColor=none;align=left;verticalAlign=middle;spacingLeft=4;spacingRight=4;overflow=hidden;points=[[0,0.5],[1,0.5]];portConstraint=eastwest;rotatable=0;whiteSpace=wrap;fontColor=#ffffff;" parent="18" vertex="1">
                    <mxGeometry y="30" width="170" height="40" as="geometry"/>
                </mxCell>
                <mxCell id="36" value="+ Add New Group Function" style="text;strokeColor=none;fillColor=none;align=left;verticalAlign=middle;spacingLeft=4;spacingRight=4;overflow=hidden;points=[[0,0.5],[1,0.5]];portConstraint=eastwest;rotatable=0;whiteSpace=wrap;" parent="18" vertex="1">
                    <mxGeometry y="70" width="170" height="30" as="geometry"/>
                </mxCell>
                <mxCell id="56" value="" style="edgeStyle=segmentEdgeStyle;endArrow=classic;html=1;" parent="18" edge="1">
                    <mxGeometry width="50" height="50" relative="1" as="geometry">
                        <mxPoint x="20" y="100" as="sourcePoint"/>
                        <mxPoint x="50" y="130" as="targetPoint"/>
                        <Array as="points">
                            <mxPoint x="20" y="130"/>
                        </Array>
                    </mxGeometry>
                </mxCell>
                <mxCell id="21" value="Study" style="swimlane;fontStyle=0;childLayout=stackLayout;horizontal=1;startSize=30;horizontalStack=0;resizeParent=1;resizeParentMax=0;resizeLast=0;collapsible=1;marginBottom=0;fillColor=#000099;strokeColor=default;" parent="1" vertex="1">
                    <mxGeometry x="520" y="570" width="190" height="70" as="geometry"/>
                </mxCell>
                <mxCell id="22" value="shows cards in order" style="text;strokeColor=#FFFFFF;fillColor=none;align=left;verticalAlign=middle;spacingLeft=4;spacingRight=4;overflow=hidden;points=[[0,0.5],[1,0.5]];portConstraint=eastwest;rotatable=0;fontColor=#ffffff;" parent="21" vertex="1">
                    <mxGeometry y="30" width="190" height="20" as="geometry"/>
                </mxCell>
                <mxCell id="23" value="front and back CSS flipping" style="text;strokeColor=none;fillColor=none;align=left;verticalAlign=middle;spacingLeft=4;spacingRight=4;overflow=hidden;points=[[0,0.5],[1,0.5]];portConstraint=eastwest;rotatable=0;" parent="21" vertex="1">
                    <mxGeometry y="50" width="190" height="20" as="geometry"/>
                </mxCell>
                <mxCell id="24" value="Group Buttons" style="swimlane;fontStyle=0;childLayout=stackLayout;horizontal=1;startSize=30;horizontalStack=0;resizeParent=1;resizeParentMax=0;resizeLast=0;collapsible=1;marginBottom=0;fillColor=#000099;fontColor=#ffffff;strokeColor=#FFFFFF;" parent="1" vertex="1">
                    <mxGeometry x="520" y="390" width="190" height="70" as="geometry"/>
                </mxCell>
                <mxCell id="25" value="your selection of existing groups" style="text;strokeColor=none;fillColor=none;align=left;verticalAlign=middle;spacingLeft=4;spacingRight=4;overflow=hidden;points=[[0,0.5],[1,0.5]];portConstraint=eastwest;rotatable=0;" parent="24" vertex="1">
                    <mxGeometry y="30" width="190" height="20" as="geometry"/>
                </mxCell>
                <mxCell id="57" value="acess to Study and Edit features" style="text;strokeColor=none;fillColor=none;align=left;verticalAlign=middle;spacingLeft=4;spacingRight=4;overflow=hidden;points=[[0,0.5],[1,0.5]];portConstraint=eastwest;rotatable=0;" vertex="1" parent="24">
                    <mxGeometry y="50" width="190" height="20" as="geometry"/>
                </mxCell>
                <mxCell id="27" value="Editor" style="swimlane;fontStyle=0;childLayout=stackLayout;horizontal=1;startSize=30;horizontalStack=0;resizeParent=1;resizeParentMax=0;resizeLast=0;collapsible=1;marginBottom=0;fillColor=#000099;" parent="1" vertex="1">
                    <mxGeometry x="520" y="470" width="190" height="90" as="geometry"/>
                </mxCell>
                <mxCell id="28" value="form for front and back" style="text;strokeColor=none;fillColor=none;align=left;verticalAlign=middle;spacingLeft=4;spacingRight=4;overflow=hidden;points=[[0,0.5],[1,0.5]];portConstraint=eastwest;rotatable=0;" parent="27" vertex="1">
                    <mxGeometry y="30" width="190" height="20" as="geometry"/>
                </mxCell>
                <mxCell id="26" value="front has larger font than back" style="text;strokeColor=none;fillColor=none;align=left;verticalAlign=middle;spacingLeft=4;spacingRight=4;overflow=hidden;points=[[0,0.5],[1,0.5]];portConstraint=eastwest;rotatable=0;" parent="27" vertex="1">
                    <mxGeometry y="50" width="190" height="20" as="geometry"/>
                </mxCell>
                <mxCell id="29" value="CRUD" style="text;strokeColor=none;fillColor=none;align=left;verticalAlign=middle;spacingLeft=4;spacingRight=4;overflow=hidden;points=[[0,0.5],[1,0.5]];portConstraint=eastwest;rotatable=0;" parent="27" vertex="1">
                    <mxGeometry y="70" width="190" height="20" as="geometry"/>
                </mxCell>
                <mxCell id="37" value="New Group" style="swimlane;fontStyle=0;childLayout=stackLayout;horizontal=1;startSize=30;horizontalStack=0;resizeParent=1;resizeParentMax=0;resizeLast=0;collapsible=1;marginBottom=0;fillColor=#000099;fontColor=#ffffff;strokeColor=#FFFFFF;" parent="1" vertex="1">
                    <mxGeometry x="520" y="310" width="190" height="70" as="geometry"/>
                </mxCell>
                <mxCell id="39" value="Posts new Card Group info to server" style="text;strokeColor=none;fillColor=none;align=left;verticalAlign=middle;spacingLeft=4;spacingRight=4;overflow=hidden;points=[[0,0.5],[1,0.5]];portConstraint=eastwest;rotatable=0;whiteSpace=wrap;" parent="37" vertex="1">
                    <mxGeometry y="30" width="190" height="40" as="geometry"/>
                </mxCell>
                <mxCell id="48" value="" style="edgeStyle=segmentEdgeStyle;endArrow=classic;html=1;" parent="1" source="13" edge="1">
                    <mxGeometry width="50" height="50" relative="1" as="geometry">
                        <mxPoint x="440" y="114" as="sourcePoint"/>
                        <mxPoint x="470" y="140" as="targetPoint"/>
                        <Array as="points">
                            <mxPoint x="440" y="140"/>
                            <mxPoint x="470" y="140"/>
                        </Array>
                    </mxGeometry>
                </mxCell>
                <mxCell id="49" value="" style="edgeStyle=segmentEdgeStyle;endArrow=classic;html=1;entryX=-0.007;entryY=0.163;entryDx=0;entryDy=0;entryPerimeter=0;" parent="1" target="18" edge="1">
                    <mxGeometry width="50" height="50" relative="1" as="geometry">
                        <mxPoint x="440" y="120" as="sourcePoint"/>
                        <mxPoint x="470" y="240" as="targetPoint"/>
                        <Array as="points">
                            <mxPoint x="440" y="216"/>
                        </Array>
                    </mxGeometry>
                </mxCell>
                <mxCell id="53" value="" style="edgeStyle=segmentEdgeStyle;endArrow=classic;html=1;entryX=0;entryY=0.25;entryDx=0;entryDy=0;" parent="1" target="24" edge="1">
                    <mxGeometry width="50" height="50" relative="1" as="geometry">
                        <mxPoint x="490" y="320" as="sourcePoint"/>
                        <mxPoint x="440" y="420" as="targetPoint"/>
                        <Array as="points">
                            <mxPoint x="490" y="408"/>
                        </Array>
                    </mxGeometry>
                </mxCell>
                <mxCell id="54" value="" style="edgeStyle=segmentEdgeStyle;endArrow=classic;html=1;" parent="1" target="27" edge="1">
                    <mxGeometry width="50" height="50" relative="1" as="geometry">
                        <mxPoint x="490" y="400" as="sourcePoint"/>
                        <mxPoint x="520" y="529.9300000000001" as="targetPoint"/>
                        <Array as="points">
                            <mxPoint x="490" y="490"/>
                        </Array>
                    </mxGeometry>
                </mxCell>
                <mxCell id="55" value="" style="edgeStyle=segmentEdgeStyle;endArrow=classic;html=1;" parent="1" edge="1" target="21">
                    <mxGeometry width="50" height="50" relative="1" as="geometry">
                        <mxPoint x="490" y="460" as="sourcePoint"/>
                        <mxPoint x="527" y="580" as="targetPoint"/>
                        <Array as="points">
                            <mxPoint x="490" y="590"/>
                        </Array>
                    </mxGeometry>
                </mxCell>
            </root>
        </mxGraphModel>
    </diagram>
</mxfile>